<svg width="1448" height="961" viewBox="0 0 1448 961" fill="none" xmlns="http://www.w3.org/2000/svg">
<path d="M692.5 575L712.5 560M675.5 601.5L723.5 564.5M675.5 617.5L728 575M678.5 631.5L731.5 586M688.5 641.5L736.5 601.5M695 653L736.5 617.5M3 190.5C54.4364 168.084 82.7154 170.194 129 187C163.767 202.133 196.265 245.68 263 347L279 369.5C346.481 456.124 449.83 331.384 596 369.5C742.17 407.616 666 564 570 611C525.413 639.794 511.651 662.018 507.923 708.006C507.601 711.967 507.948 715.987 508.994 719.821C519.838 759.589 538.663 777.666 580 804.5C622.649 827.218 646.247 836.931 688 851C757.346 875.356 796.346 884.274 866 896.5C950.549 905.633 997.952 906.053 1082.5 896.5C1182.07 874.853 1213.75 852.771 1234.22 804.398C1236.13 799.88 1237.02 794.995 1237.38 790.103C1238.38 776.601 1241.99 743.017 1255 676.5C1273 584.5 1259.33 524.106 1282 483.5C1303.87 451.953 1322.8 442.716 1369 442C1403.92 445.159 1462.5 463 1440.5 458M1440.5 346.5C1410.83 351.031 1394.03 352.473 1363.5 351.5C1341.51 350.397 1328.13 349.289 1302.5 346.5C1155.34 312.891 1089.46 282.677 961.873 239.491C956.063 237.524 950.7 234.248 946.406 229.868C894.38 176.803 883.943 146.754 924.5 99.5C953.981 62.3794 974.99 47.2157 1015.5 24L1053.5 3M850.5 214.5L830 230M873.5 210L810 263M890.5 212L807.5 286M905 219.5L810 302.5M918.5 225L818 320M827 336L938 232M209.5 947L194 958M205.5 932L178.5 958M197 914.5L153.5 958M183.5 905L130.5 958M170 898L107.5 958M158.5 888L82.5 958M139.5 887L62 958" stroke="#D6D0D0" stroke-width="5" stroke-linecap="round"/>
</svg>
